. 

TorrentDay - Your Gateway To The Scene.

we are the most on-time tracker around the globe, You can download releases whenever they release out by group uploaders. no Wait Time.

TorrentDay is a private tracker torrent website, which is totally free, safe and fast.


Higher Speed Download is available at: TorrentDay - Your Gateway To The Scene.


.

Torrentday : Clean RAR Scene File - Enjoy and don't forget to leave Thanks


Enjoy :)

...................................NFO:....................................

.SPRiNTER proudly presents...



In.The.Hands.Of.The.Gods.2007.DVDRip.XviD-SPRiNTER
http://www.imdb.com/title/tt1051231/
Subtitles: Dansk, Finish, Norsk
Date: 2010.01


Director: Benjamin Turner & Gabe Turner
Genre: Documentary | Sport 
Plot: In the Hands of the Gods is the true story of five young British freestyle
footballers journey across the Americas to Argentina in the hope of meeting their
hero, Diego Maradona. This coming-of-age road movie tells the story of a group of
young men in pursuit of a lifelong dream.


Cast:

 Sami Hall Bassam	...  Himself 
 Mikey Fisher 		...  Himself 
 Jeremy Lynch		...  Himself 
 Danny Robinson		...  Himself 
 Paul Wood 		...  Himself 


Release notes:
Enjoy!

Stats:
Format                           : AVI
Format/Info                      : Audio Video Interleave
File size                        : 697 MiB
Duration                         : 1h 32mn
Overall bit rate                 : 1 054 Kbps
Writing application              : VirtualDubMod 1.5.10.2 (build 2542/release)
Writing library                  : VirtualDubMod build 2542/release

Video
ID                               : 0
Format                           : MPEG-4 Visual
Format profile                   : AdvancedSimple@L5
Format settings, BVOP            : Yes
Format settings, QPel            : No
Format settings, GMC             : No warppoints
Format settings, Matrix          : Default (H.263)
Codec ID                         : XVID
Codec ID/Hint                    : XviD
Duration                         : 1h 32mn
Bit rate                         : 909 Kbps
Width                            : 640 pixels
Height                           : 352 pixels
Display aspect ratio             : 16:9
Frame rate                       : 25.000 fps
Resolution                       : 24 bits
Colorimetry                      : 4:2:0
Scan type                        : Progressive
Bits/(Pixel*Frame)               : 0.161
Stream size                      : 601 MiB (86%)
Writing library                  : XviD 1.2.1 (UTC 2008-12-04)

Audio
ID                               : 1
Format                           : MPEG Audio
Format version                   : Version 1
Format profile                   : Layer 3
Format_Settings_Mode             : Joint stereo
Codec ID                         : 55
Codec ID/Hint                    : MP3
Duration                         : 1h 32mn
Bit rate mode                    : Variable
Bit rate                         : 132 Kbps
Nominal bit rate                 : 128 Kbps
Channel(s)                       : 2 channels
Sampling rate                    : 48.0 KHz
Resolution                       : 16 bits
Stream size                      : 87.1 MiB (12%)
Alignment                        : Aligned on interleaves
Interleave, duration             : 24 ms (0.60 video frame)
Interleave, preload duration     : 139 ms
Writing library                  : LAME3.90.
Encoding settings                : -m j -V 4 -q 2 -lowpass 17.6 --abr 128